<svg width="241" height="195" viewBox="0 0 241 195" fill="none" xmlns="http://www.w3.org/2000/svg">
<g clip-path="url(#clip0)">
<path d="M110.64 1.17925C107.84 1.97925 103.84 3.87925 101.64 5.47925C99.3399 7.07925 77.6399 28.2793 53.3399 52.6793C5.13988 100.979 6.03988 99.8793 9.43988 107.779C12.0399 114.079 20.4399 117.379 26.3399 114.379C27.5399 113.779 48.5399 93.2793 73.0399 68.8793C111.64 30.4793 117.94 24.4793 120.54 24.4793C123.14 24.4793 129.44 30.4793 168.04 68.8793C192.54 93.2793 213.54 113.779 214.74 114.379C220.64 117.379 229.04 114.079 231.64 107.779C234.74 100.579 233.64 98.7793 213.44 78.4793L195.04 59.8793V40.2793C195.04 29.5793 194.74 19.3793 194.44 17.5793C192.54 8.27926 179.64 4.97925 172.94 12.0793C170.84 14.3793 170.54 15.6793 170.24 24.0793C170.04 29.2793 169.54 33.4793 169.14 33.4793C168.84 33.4793 162.94 27.7793 156.04 20.8793C149.14 13.9793 141.74 7.07925 139.54 5.47925C131.44 -0.120745 120.24 -1.82074 110.64 1.17925Z" fill="black"/>
<path d="M79.3 75.2L40 114.5V146.3C40 181.6 40 181.9 47.1 188.8C52.6 194.2 56.9 195 79.2 195H99L99.2 166.2L99.5 137.5H120.5H141.5L141.8 166.2L142 195H161.8C184.1 195 188.4 194.2 193.9 188.8C201 181.9 201 181.6 201 146.3V114.5L161.7 75.2C137 50.6 121.7 36 120.5 36C119.3 36 104 50.6 79.3 75.2Z" fill="black"/>
</g>
<defs>
<clipPath id="clip0">
<rect width="241" height="195" fill="white"/>
</clipPath>
</defs>
</svg>
